<svg xmlns="http://www.w3.org/2000/svg" width="600" height="400" viewBox="0 0 600 400">
  <defs>
    <linearGradient id="bgGrad" x1="0%" y1="0%" x2="100%" y2="100%">
      <stop offset="0%" style="stop-color:#0a0a0f"/>
      <stop offset="100%" style="stop-color:#1a1a2e"/>
    </linearGradient>
    <linearGradient id="accent" x1="0%" y1="0%" x2="100%" y2="100%">
      <stop offset="0%" style="stop-color:#7c3aed"/>
      <stop offset="100%" style="stop-color:#06b6d4"/>
    </linearGradient>
  </defs>
  <rect width="600" height="400" fill="url(#bgGrad)"/>
  <!-- Binary Tree -->
  <!-- Root -->
  <circle cx="300" cy="70" r="25" fill="url(#accent)"/>
  <text x="300" y="77" text-anchor="middle" fill="white" font-family="monospace" font-size="16">8</text>
  <!-- Level 2 -->
  <line x1="280" y1="90" x2="200" y2="130" stroke="#7c3aed" stroke-width="2"/>
  <line x1="320" y1="90" x2="400" y2="130" stroke="#06b6d4" stroke-width="2"/>
  <circle cx="200" cy="150" r="20" fill="url(#accent)" opacity="0.8"/>
  <text x="200" y="157" text-anchor="middle" fill="white" font-family="monospace" font-size="14">4</text>
  <circle cx="400" cy="150" r="20" fill="url(#accent)" opacity="0.8"/>
  <text x="400" y="157" text-anchor="middle" fill="white" font-family="monospace" font-size="14">12</text>
  <!-- Level 3 -->
  <line x1="185" y1="165" x2="130" y2="200" stroke="#7c3aed" stroke-width="1.5"/>
  <line x1="215" y1="165" x2="270" y2="200" stroke="#06b6d4" stroke-width="1.5"/>
  <line x1="385" y1="165" x2="330" y2="200" stroke="#7c3aed" stroke-width="1.5"/>
  <line x1="415" y1="165" x2="470" y2="200" stroke="#06b6d4" stroke-width="1.5"/>
  <circle cx="130" cy="215" r="15" fill="url(#accent)" opacity="0.6"/>
  <text x="130" y="220" text-anchor="middle" fill="white" font-family="monospace" font-size="12">2</text>
  <circle cx="270" cy="215" r="15" fill="url(#accent)" opacity="0.6"/>
  <text x="270" y="220" text-anchor="middle" fill="white" font-family="monospace" font-size="12">6</text>
  <circle cx="330" cy="215" r="15" fill="url(#accent)" opacity="0.6"/>
  <text x="330" y="220" text-anchor="middle" fill="white" font-family="monospace" font-size="12">10</text>
  <circle cx="470" cy="215" r="15" fill="url(#accent)" opacity="0.6"/>
  <text x="470" y="220" text-anchor="middle" fill="white" font-family="monospace" font-size="12">14</text>
  <!-- Title -->
  <text x="300" y="300" text-anchor="middle" fill="white" font-family="Arial" font-size="20" font-weight="bold">Data Structure Library</text>
  <text x="300" y="380" text-anchor="middle" fill="#666" font-family="Arial" font-size="14">Trees, Graphs, Heaps &amp; More</text>
</svg>
